<svg fill="currentColor" preserveAspectRatio="xMidYMid meet" viewBox="0 0 131 130" x="0"
    xmlns="http://www.w3.org/2000/svg" y="0">
    <g fill="none" fill-rule="evenodd">
        <g fill-rule="nonzero">
            <circle cx="63.985" cy="40.827" fill="#dd9c4c" r="3.947" stroke="#b4782d"
                stroke-width="2" />
            <g stroke="#b4782d" stroke-width="2">
                <path d="M61.038 55.64h7.347v32.586h-7.347zM81.758 55.64h7.348v32.586h-7.348z" />
            </g>
            <g stroke="#b4782d" stroke-width="2">
                <path d="M64 29.197L32.713 50.37h64.361z" />
                <path d="M35.125 86.172h58.758v5.478H35.125zM35.125 50.5h58.758v5.477H35.125z"
                    fill="#f9c78a" />
            </g>
            <path d="M38.864 56.108h7.347v32.585h-7.347z" fill="#dd9c4c" stroke="#b4782d"
                stroke-width="2" />
            <path d="M46.744 55.108v34.585h-3.947V55.108z" fill="#f9c78a" />
            <path d="M38.864 56.108h7.347v32.585h-7.347z" stroke="#b4782d" stroke-width="2" />
            <path d="M61.038 55.64h7.347v32.586h-7.347zM81.758 55.64h7.348v32.586h-7.348z"
                fill="#dd9c4c" stroke="#b4782d" stroke-width="2" />
            <path d="M68.918 54.64v34.586H64.97V54.64zM89.638 54.64v34.586h-3.947V54.64z"
                fill="#f9c78a" />
            <path d="M31.334 91.78h66.288v8.283H31.334z" fill="#f9c78a" stroke="#b4782d"
                stroke-width="2" />
            <path d="M31.424 92.08h24.667v7.893H31.424z" fill="#dd9c4c" />
            <path d="M31.334 91.78h66.288v8.283H31.334z" stroke="#b4782d" stroke-width="2" />
            <path d="M64 29.197L32.713 50.37h64.361z" fill="#f9c78a" stroke="#b4782d"
                stroke-width="2" />
            <path d="M82.731 51.369l-27.38-17.527L63.985 28l36.507 23.369z" fill="#ffddb3" />
            <path d="M35.343 86.16h25.682v4.933H35.344z" fill="#dd9c4c" />
            <path d="M35.125 86.172h58.758v5.478H35.125z" stroke="#b4782d" stroke-width="2" />
        </g>
        <rect height="130" rx="20" width="130" x=".451" />
    </g>
</svg>