<svg fill="currentColor" preserveAspectRatio="xMidYMid meet" viewBox="0 0 131 130" x="0"
    xmlns="http://www.w3.org/2000/svg" y="0">
    <g fill="none" fill-rule="evenodd" transform="translate(.45)">
        <g fill-rule="nonzero">
            <path
                d="M68.345 44.665c20.47 8.5 50.363 60.464-9.336 56.068-43.146-3.177-18.414-46.962-.819-55.684-5.897-3.855-9.667-12.703-7.472-15.136 2.7-2.993 7.511 2.376 11.928 1.838 3.115-.465 9.558-3.108 12.525-2.505 2.233.453-1.396 10.818-6.826 15.42z"
                fill="#ce96e3" stroke="#9b52b6" stroke-width="2" />
            <path
                d="M63.541 100.95C85 87 80.64 55.748 66.765 44.312c4.693-3.977 4.86-11.994 3.378-14.39 2.14-.556 4.199-.95 5.544-.676 2.233.453-1.396 10.818-6.826 15.42 19.994 8.301 48.979 58.073-5.32 56.284z"
                fill="#c484dc" />
            <path
                d="M68.345 44.665c20.47 8.5 50.363 60.464-9.336 56.068-43.146-3.177-18.414-46.962-.819-55.684-5.897-3.855-9.667-12.703-7.472-15.136 2.7-2.993 7.511 2.376 11.928 1.838 3.115-.465 9.558-3.108 12.525-2.505 2.233.453-1.396 10.818-6.826 15.42z"
                stroke="#9b52b6" stroke-width="2" />
            <path
                d="M73.64 68.147a.556.556 0 0 0-.414-.164h-3.073c-.204-1.007-.587-1.88-1.15-2.62h4.187a.557.557 0 0 0 .414-.164.573.573 0 0 0 .161-.419v-1.856c0-.17-.054-.31-.161-.42a.558.558 0 0 0-.414-.163H58.236a.557.557 0 0 0-.575.582v2.421c0 .158.056.294.17.41a.55.55 0 0 0 .405.172h2.606c2.528 0 4.134.686 4.817 2.057h-7.423a.556.556 0 0 0-.575.582v1.857a.556.556 0 0 0 .575.582h7.675c-.264.995-.878 1.753-1.843 2.275-.964.522-2.237.782-3.82.782h-2.012a.55.55 0 0 0-.405.173.563.563 0 0 0-.17.41v2.311c0 .158.053.292.161.4 2.3 2.476 5.285 5.94 8.951 10.393a.528.528 0 0 0 .45.218h3.505c.252 0 .425-.109.521-.328.12-.218.096-.424-.072-.618-3.499-4.344-6.249-7.596-8.25-9.755 2.037-.243 3.69-.91 4.961-2.002 1.27-1.092 2.043-2.512 2.319-4.26h3.02a.555.555 0 0 0 .575-.581v-1.856a.57.57 0 0 0-.162-.42z"
                fill="#f4d6ff" />
        </g>
        <path d="M56 44c5.824 2.647 12 1.412 14.824 0" stroke="#9b52b6" stroke-linecap="round"
            stroke-width="2" />
        <rect height="130" rx="20" width="130" />
    </g>
</svg>