<svg fill="currentColor" preserveAspectRatio="xMidYMid meet" viewBox="0 0 131 130" x="0"
    xmlns="http://www.w3.org/2000/svg" y="0">
    <g fill="none" fill-rule="evenodd">
        <g transform="translate(29.45 27)">
            <g fill-rule="nonzero">
                <path d="M46 1v17l7.463-6 7.47 6V1" fill="#c8eeff" stroke="#499cc2"
                    stroke-width="2" />
                <path
                    d="M39 0H11a5 5 0 0 0-5 5v65a5 5 0 0 0 5 5h56H5a5 5 0 0 1-5-5V5a5 5 0 0 1 5-5z"
                    fill="#aee5ff" />
                <rect height="73" rx="5" stroke="#499cc2" stroke-width="2" width="70" x="1" y="1" />
                <rect height="73" rx="5" stroke="#499cc2" stroke-width="2" width="70" x="1" y="1" />
            </g>
            <path
                d="M34.998 25.59c-4.481 4.493-8.964 8.985-13.443 13.482-.735.706-.742 2.017-.007 2.726.903.91 1.806 1.82 2.716 2.722.713.715 2.003.699 2.698-.035 1.863-1.874 3.743-3.73 5.59-5.62.017.1.032.202.027.307v14.32c0 .253-.015.51.035.76.172.858.988 1.548 1.868 1.538 1.275.005 2.551.005 3.827 0 .782.011 1.508-.53 1.786-1.251.158-.405.118-.849.123-1.274.004-4.804-.007-9.606.006-14.409 1.798 1.821 3.614 3.625 5.418 5.44.192.193.386.39.622.528a1.87 1.87 0 0 0 1.973-.064c.237-.167.437-.38.642-.585l2.063-2.068c.228-.231.475-.455.63-.746.384-.728.267-1.709-.333-2.287-4.465-4.485-8.938-8.963-13.405-13.446-.71-.82-2.106-.84-2.836-.038 0 0 .73-.803 0 0z"
                fill="#c8eeff" />
            <rect fill="#81d1f6" fill-rule="nonzero" height="73" rx="5" stroke="#499cc2"
                stroke-width="2" width="70" x="1" y="1" />
        </g>
        <rect height="130" rx="20" width="130" x=".451" />
    </g>
</svg>