<svg fill="currentColor" preserveAspectRatio="xMidYMid meet" viewBox="0 0 130 130" x="0"
    xmlns="http://www.w3.org/2000/svg" y="0">
    <defs>
        <circle cx="11.5" cy="11.722" id="a" r="11.5" />
    </defs>
    <g fill="none" fill-rule="evenodd" transform="translate(27 18)">
        <g transform="translate(9 51.87)">
            <circle cx="11.5" cy="11.722" r="12.5" stroke="#1B8A75" stroke-width="2" />
            <mask fill="#fff" id="b">
                <use xmlns:xlink="http://www.w3.org/1999/xlink" xlink:href="#a" />
            </mask>
            <path d="M11.289 12.222L26 3.982 12.5-5z" fill="#AEFFF0" fill-rule="nonzero"
                mask="url(#b)" stroke="#1B8A75" stroke-width="2" />
        </g>
        <g fill-rule="nonzero" stroke-width="2">
            <path d="M11 38.598v-2h43.466v2H11zm0-2h43.466v2H11v-2z" fill="#1B8A75" stroke="#008B75"
                stroke-linecap="round" />
            <path
                d="M49.414 37.554V21.799a1 1 0 0 0-1-1H45a1 1 0 0 0-1 1v15.755h5.414zM37.414 37.554V24.799a1 1 0 0 0-1-1H33a1 1 0 0 0-1 1v12.755h5.414zM25.414 37.554v-7.755a1 1 0 0 0-1-1H21a1 1 0 0 0-1 1v7.755h5.414z"
                fill="#A9FBEC" stroke="#1B8A75" />
        </g>
        <path
            d="M5.524 85.76A4.002 4.002 0 0 1 2.5 81.878v-68.02a4.002 4.002 0 0 1 3.024-3.88 3.982 3.982 0 0 0-.724 2.297v71.187c0 .854.268 1.646.724 2.296z"
            fill="#FFF" fill-rule="nonzero" opacity=".5" />
        <path
            d="M55.911 85.76a4.002 4.002 0 0 0 3.025-3.881v-68.02a4.002 4.002 0 0 0-3.025-3.88c.457.65.725 1.443.725 2.297v71.187c0 .854-.268 1.646-.725 2.296z"
            fill="#1B8A75" fill-rule="nonzero" opacity=".3" />
        <path
            d="M17.678 12.574h26.773V8.206a2 2 0 0 0-2-2h-7.639v-1.91a3.296 3.296 0 1 0-6.591 0v1.91h-8.543a2 2 0 0 0-2 2v4.368z"
            fill="#70DFCA" fill-rule="nonzero" stroke="#1B8A75" stroke-width="2" />
        <path d="M42.73 8.276v3.24h.932V8.2a1 1 0 0 0-1-1h-9v1.076h9.069z" fill="#56C4B0"
            fill-rule="nonzero" />
        <path
            d="M19.786 8.276v3.24H18.7V8.2a1 1 0 0 1 1-1h10.662v1.076H19.786zm9.44-3.943a2.333 2.333 0 0 1 2.877-2.27 2.334 2.334 0 0 0-1.79 2.27v2.852h-1.086V4.333zm6.254 2.352h2.53-2.53z"
            fill="#B7EFE4" fill-rule="nonzero" />
        <path
            d="M41.636 92.853A4 4 0 0 1 38 88.869v-40a4 4 0 0 1 3.636-3.983 3.99 3.99 0 0 0-1.336 2.983v42a3.99 3.99 0 0 0 1.336 2.984z"
            fill="#FFF" fill-rule="nonzero" opacity=".5" />
        <path
            d="M72.4 92.853a4 4 0 0 0 3.636-3.984v-40a4 4 0 0 0-3.636-3.983 3.99 3.99 0 0 1 1.336 2.983v42a3.99 3.99 0 0 1-1.336 2.984z"
            fill="#56C4B0" fill-rule="nonzero" />
        <path d="M44 62.091h6v6h-6z" fill="#5AD3BD" fill-rule="nonzero" stroke="#1B8A75"
            stroke-width="2" />
        <path
            d="M44 72.091h6v6h-6zM44 82.091h6v6h-6zM54 62.091h6v6h-6zM54.1 72.091h6v6h-6zM54.1 82.091h6v6h-6zM64 62.091h6v6h-6zM64 72.091h6v16h-6z"
            fill="#5AD3BD" fill-rule="nonzero" stroke="#1B8A75" stroke-width="2" />
        <rect fill="#70DFCA" fill-rule="nonzero" height="78" rx="5" stroke="#1B8A75"
            stroke-width="2" width="59" x="1" y="9.091" />
        <rect fill="#70DFCA" fill-rule="nonzero" height="50" rx="4" stroke="#1B8A75"
            stroke-width="2" width="40" x="37" y="43.869" />
        <rect fill="#A9FBEC" fill-rule="nonzero" height="8" rx="1" stroke="#1B8A75" stroke-width="2"
            width="27" x="43.6" y="49.091" />
    </g>
</svg>