<svg fill="currentColor" preserveAspectRatio="xMidYMid meet" viewBox="0 0 131 130" x="0"
    xmlns="http://www.w3.org/2000/svg" y="0">
    <g fill="none" fill-rule="evenodd">
        <g fill-rule="nonzero" transform="translate(31.45 29)">
            <path d="M62 65V6H17a6 6 0 0 0-6 6v47a6 6 0 0 0 6 6z" fill="#def9ff" stroke="#5b97cf"
                stroke-width="2" />
            <path
                d="M7 0h43a7 7 0 0 1 7 7v58a7 7 0 0 1-7 7H28.5C12.76 72 0 59.24 0 43.5V7a7 7 0 0 1 7-7z"
                fill="#def9ff" />
            <path
                d="M26 0h24a7 7 0 0 1 7 7v58a7 7 0 0 1-7 7H36.75 45a7 7 0 0 0 7-7V7a7 7 0 0 0-7-7z"
                fill="#abe7ff" />
            <rect fill="#abe7ff" height="70" rx="7" stroke="#5b97cf" stroke-width="2" width="55"
                x="12" y="1" />
            <rect fill="#abe7ff" height="70" rx="7" stroke="#5d9bd6" stroke-width="2" width="55"
                x="1" y="1" />
            <rect height="70" rx="7" stroke="#5b97cf" stroke-width="2" width="55" x="1" y="1" />
        </g>
        <rect height="130" rx="20" width="130" x=".451" />
        <text fill="#76beff" font-family="Helvetica" font-size="40" letter-spacing="-.4"
            transform="translate(31.45 29)">
            <tspan x="8" y="61">A</tspan>
        </text>
        <text fill="#76beff" font-family="Helvetica" font-size="28" letter-spacing="-.28"
            transform="translate(31.45 29)">
            <tspan x="32" y="39">a</tspan>
        </text>
    </g>
</svg>