<svg fill="currentColor" preserveAspectRatio="xMidYMid meet" viewBox="0 0 131 130" x="0"
    xmlns="http://www.w3.org/2000/svg" y="0">
    <g fill="none" fill-rule="evenodd">
        <g fill="#d46173">
            <path
                d="M69.43 101.5v2.25a2.25 2.25 0 0 1-2.25 2.25h-2.25v-4.5zM51.43 85.75h27V83.5h-27zM51.43 91.377h27v-2.25h-27zM64.93 94.75h-13.5c0 .792.143 1.548.392 2.25h26.215a6.73 6.73 0 0 0 .392-2.25z" />
        </g>
        <g fill-rule="nonzero" transform="translate(26.45 23)">
            <ellipse cx="31.433" cy="33.232" fill="#fff" opacity=".2" rx="19" ry="13.5"
                transform="rotate(-50 31.433 33.232)" />
            <path d="M33.978 78.5h8.55" stroke="#af4b5b" stroke-linecap="square" stroke-width="2" />
            <path d="M33.378 46.333v13.55M44.378 46.333v13.55" stroke="#af4b5b"
                stroke-linecap="square" stroke-width="2" />
            <path d="M51.867 44c-7.918 3.333-16.248 3.333-24.989 0" stroke="#af4b5b"
                stroke-width="2" />
            <path
                d="M6.633 35.112L.878 33.767M15.805 13.983L12.197 10M71.878 35.112l5.755-1.345M62.197 13.983L65.805 10"
                stroke="#af4b5b" stroke-linejoin="round" stroke-width="2" />
            <path d="M38.878.5v5" stroke="#af4b5b" stroke-linecap="square" stroke-linejoin="round"
                stroke-width="2" />
        </g>
        <path
            d="M51.43 83.5v11.25c0 .792.143 1.548.392 2.25a6.747 6.747 0 0 0 6.357 4.5h2.25v2.25a2.25 2.25 0 0 0 2.25 2.25h4.5a2.25 2.25 0 0 0 2.25-2.25v-2.25h2.25a6.743 6.743 0 0 0 6.358-4.5 6.73 6.73 0 0 0 .392-2.25V83.5z"
            fill="#e97d8f" />
        <path
            d="M51.43 94.75c0 .792.143 1.548.392 2.25h13.107v-2.25zM51.43 85.75h13.5V83.5h-13.5zM51.43 91.377h13.5v-2.25h-13.5z"
            fill="#ffb0bd" />
        <path
            d="M78.83 83.5c7.444-4.806 13.5-12.978 13.5-22.5 0-14.911-12.086-27-27-27-14.912 0-27 12.089-27 27 0 9.522 5.622 18 13.5 22.5z"
            fill="#ffb0bd" stroke="#af4b5b" stroke-width="2" />
        <path
            d="M51.829 83.5h17c7.445-4.806 13.5-12.978 13.5-22.5 0-13.203-9.475-24.193-22-26.538a27.147 27.147 0 0 1 5-.462c14.915 0 27 12.089 27 27 0 9.522-6.055 17.694-13.5 22.5z"
            fill="#e97d8f" opacity=".253" />
        <path
            d="M78.83 83.5c7.444-4.806 13.5-12.978 13.5-22.5 0-14.911-12.086-27-27-27-14.912 0-27 12.089-27 27 0 9.522 5.622 18 13.5 22.5zM51.33 84v11.25c0 .792.143 1.548.392 2.25a6.747 6.747 0 0 0 6.357 4.5h2.25v2.25a2.25 2.25 0 0 0 2.25 2.25h4.5a2.25 2.25 0 0 0 2.25-2.25V102h2.25a6.743 6.743 0 0 0 6.358-4.5 6.73 6.73 0 0 0 .392-2.25V84z"
            stroke="#af4b5b" stroke-width="2" />
        <path d="M60.43 101.5v2.25a2.25 2.25 0 0 0 2.25 2.25h2.25v-4.5z" fill="#ffb0bd" />
        <rect height="130" rx="20" width="130" x=".451" />
    </g>
</svg>